<svg xmlns="http://www.w3.org/2000/svg" xmlns:xlink="http://www.w3.org/1999/xlink" version="1.1" x="0px" y="0px" viewBox="0 0 100 125" style="enable-background:new 0 0 100 100;" xml:space="preserve"><g><path d="M0.127,22.808c0,0,3.159-0.613,4.129-1.076c2.588-1.236,3.353-3.149,5.073-5.667c2.229-3.265,9.419-4.739,9.419-4.739   L18.962,0c0,0,13.638,11.055,15.976,14.933c3.988,6.616,5.997,17.824,5.997,17.824s0.579,5.034,7.408,11.711   c6.44,6.298,30.19,8.071,32.876,36.23c2.221-0.43,4.558-1.33,5.887-3.109c2.637-3.53,0.926-9.928-0.973-14.674   c-6.938-17.329-7.577-29.283-1.852-34.569c3.303-3.049,8.112-3.379,13.199-0.905c2.227,1.082,3.15,3.757,2.063,5.975   c-1.089,2.217-3.774,3.137-6.003,2.053c-1.621-0.788-2.816-0.884-3.155-0.571c-1.179,1.089-2.743,7.65,4.086,24.713   c4.006,10.008,3.938,17.867-0.2,23.36c-3.523,4.676-9.107,6.274-13.265,6.783c-2.081,7.689-10.677,9.848-15.487,9.848   c-2.791,0-31.844,0-34.414,0c0.035,0.035-3.038-0.162-2.688-2.111c0.638-3.553,3.663-4.669,7.416-4.686s4.806,0.054,7.28,0.097   c1.242,0.021-11.955-3.308-10.91-13.315c2.796-19.895,24.22-11.71,24.22-11.71c-21.124-10.388-25.548,6.67-25.548,6.67   c-0.031,0.08-4.949,20.8-4.949,20.8s-1.113,4.651-5.23,4.651c-2.791,0-7.226,0-9.796,0c0.035,0.035-3.038-0.161-2.688-2.111   c1.021-5.684,4.791-3.361,8.916-8.561c4.125-5.2,0.825-9.306,0.825-9.306c-9.624-15.873-2.364-24.603-2.75-34.209   c-0.275-6.841-4.674-9.578-4.674-9.578c-4.674-2.189-6.997-2.621-9.481-6.948C-0.505,26.579,0.127,22.808,0.127,22.808z"/></g><text x="0" y="115" fill="#000000" font-size="5px" font-weight="bold" font-family="'Helvetica Neue', Helvetica, Arial-Unicode, Arial, Sans-serif">Created by b farias</text><text x="0" y="120" fill="#000000" font-size="5px" font-weight="bold" font-family="'Helvetica Neue', Helvetica, Arial-Unicode, Arial, Sans-serif">from the Noun Project</text></svg>