<svg xmlns:dc="http://purl.org/dc/elements/1.1/" xmlns:cc="http://creativecommons.org/ns#" xmlns:rdf="http://www.w3.org/1999/02/22-rdf-syntax-ns#" xmlns:svg="http://www.w3.org/2000/svg" xmlns="http://www.w3.org/2000/svg" xmlns:sodipodi="http://sodipodi.sourceforge.net/DTD/sodipodi-0.dtd" xmlns:inkscape="http://www.inkscape.org/namespaces/inkscape" viewBox="0 0 511.99998 639.999975" version="1.1" x="0px" y="0px"><g transform="translate(-88.749289,-131.31133)"><path style="opacity:1;fill:#000000;fill-opacity:1;fill-rule:nonzero;stroke:none;stroke-width:18.14404869;stroke-linecap:butt;stroke-linejoin:miter;stroke-miterlimit:4;stroke-dasharray:none;stroke-dashoffset:0;stroke-opacity:1" d="M 220.39967,156.35285 C 152.80228,156.0905 88.749279,206.91383 88.749279,285.76691 c 0,155.6173 149.103891,172.14758 256.000001,332.5039 106.89615,-160.35632 256,-176.8866 256,-332.5039 0,-132.80521 -181.68898,-186.100084 -256,-49.7461 -30.18885,-55.39379 -78.09876,-79.48855 -124.34961,-79.66796 z m -16.77344,29.0625 c 7.90292,0.0542 13.05486,3.46776 12.49219,11.81054 -0.90187,13.37241 -20.66926,10.21305 -44.44141,29.7793 -32.66127,26.88266 -24.69585,39.89524 -40.97461,35.77344 -16.69264,-4.2266 0.61012,-38.79667 24.19727,-56.89844 14.74197,-11.3136 35.55504,-20.55512 48.72656,-20.46484 z"/></g><text x="0" y="526.99998" fill="#000000" font-size="5px" font-weight="bold" font-family="'Helvetica Neue', Helvetica, Arial-Unicode, Arial, Sans-serif">Created by Ali Coşkun</text><text x="0" y="531.99998" fill="#000000" font-size="5px" font-weight="bold" font-family="'Helvetica Neue', Helvetica, Arial-Unicode, Arial, Sans-serif">from the Noun Project</text></svg>